<?xml version="1.0" encoding="UTF-8" standalone="no"?>
<!-- Created with Inkscape (http://www.inkscape.org/) -->

<svg
   xmlns:dc="http://purl.org/dc/elements/1.1/"
   xmlns:cc="http://creativecommons.org/ns#"
   xmlns:rdf="http://www.w3.org/1999/02/22-rdf-syntax-ns#"
   xmlns:svg="http://www.w3.org/2000/svg"
   xmlns="http://www.w3.org/2000/svg"
   xmlns:sodipodi="http://sodipodi.sourceforge.net/DTD/sodipodi-0.dtd"
   xmlns:inkscape="http://www.inkscape.org/namespaces/inkscape"
   width="744.09448819"
   height="1052.3622047"
   id="svg2"
   version="1.1"
   inkscape:version="0.48.2 r9819"
   sodipodi:docname="New document 1.2011_11_11_18_07_43.0.svg">
  <defs
     id="defs4" />
  <sodipodi:namedview
     id="base"
     pagecolor="#ffffff"
     bordercolor="#666666"
     borderopacity="1.0"
     inkscape:pageopacity="0.0"
     inkscape:pageshadow="2"
     inkscape:zoom="1.4"
     inkscape:cx="171.20341"
     inkscape:cy="110.72873"
     inkscape:document-units="px"
     inkscape:current-layer="layer1"
     showgrid="false"
     inkscape:window-width="1024"
     inkscape:window-height="717"
     inkscape:window-x="-4"
     inkscape:window-y="-4"
     inkscape:window-maximized="1" />
  <metadata
     id="metadata7">
    <rdf:RDF>
      <cc:Work
         rdf:about="">
        <dc:format>image/svg+xml</dc:format>
        <dc:type
           rdf:resource="http://purl.org/dc/dcmitype/StillImage" />
        <dc:title></dc:title>
      </cc:Work>
    </rdf:RDF>
  </metadata>
  <g
     inkscape:label="Layer 1"
     inkscape:groupmode="layer"
     id="layer1">
    <g
       id="g3949"
       transform="translate(-62.500008,14.642908)">
      <path
         inkscape:connector-curvature="0"
         id="path3212"
         d="m 143.27382,869.21918 c -4.96528,-0.0232 -9.88227,0.24514 -10.8226,0.85394 -0.74589,0.4829 -1.60455,2.78369 -1.90812,5.0931 -0.53625,4.07957 -0.70208,4.22649 -5.33676,5.52008 -6.37159,1.7784 -15.85545,5.60979 -20.27373,8.20388 -5.194703,3.04993 -14.711559,10.87524 -18.574311,15.24883 -27.263597,30.86924 -26.246296,79.17615 2.295702,108.57169 11.740469,12.0915 22.719219,18.0121 42.276689,22.7817 1.04946,0.2559 7.70402,0.3384 14.7879,0.183 11.53749,-0.2531 13.8045,-0.6144 21.79426,-3.3852 12.79815,-4.4385 21.20026,-9.8127 30.67892,-19.6406 23.14388,-23.99641 28.84114,-58.19571 14.84753,-89.29705 -3.67183,-8.1608 -11.66889,-19.24048 -17.97803,-24.9166 -7.22789,-6.5027 -19.40805,-13.48943 -28.3236,-16.22476 -4.47597,-1.37324 -8.67596,-2.63556 -9.33188,-2.83628 -0.69559,-0.21286 -1.19256,-1.99493 -1.19256,-4.26968 0,-2.85699 -0.49662,-4.17004 -1.84849,-4.91012 -1.12971,-0.61845 -6.12565,-0.95275 -11.09092,-0.97593 z"
         style="fill:#f6f2cd;stroke:none" />
      <path
         inkscape:connector-curvature="0"
         id="path3208-9"
         d="m 140.24673,870.36359 c -1.36574,0.0215 -2.42477,0.0806 -3.375,0.15625 l 0,165.31246 c 12.01912,0.9134 24.89623,-0.922 36.53125,-5.3438 4.50664,-1.7128 8.85827,-3.8601 12.96875,-6.4375 0.0611,-0.043 0.12655,-0.082 0.1875,-0.125 18.82629,-13.2578 31.46875,-37.80469 31.46875,-65.90616 0,-27.68765 -12.29218,-51.90538 -30.65625,-65.28125 -6.72133,-4.33973 -14.13181,-7.62783 -22.4375,-9.96875 l -8.34375,-2.375 -0.28125,-3.8125 c -0.42698,-5.36865 -2.167,-6.21875 -12.34375,-6.21875 -1.39282,0 -2.63125,-0.0177 -3.71875,0 z m 4.34375,22.09375 6.15625,0.1875 c 8.8064,0.32205 20.92715,4.38554 29.5625,9.90625 20.49338,13.10161 31.9268,35.10138 30.6875,58.9375 -1.25119,24.06458 -15.47384,45.28511 -37.15625,55.43741 -5.05593,2.3674 -11.4625,4.7876 -14.21875,5.3438 -9.83433,1.9843 -13.22786,2.1709 -14.40625,0.7812 -0.81461,-0.9607 -1.06143,-19.2633 -0.875,-65.99991 l 0.25,-64.59375 z m 9.875,10.28125 c -1.6479,0 -4.375,2.746 -4.375,4.40625 0,0.7322 0.72749,2.02715 1.59375,2.875 1.88328,1.84324 3.58528,1.94244 5.21875,0.34375 2.45037,-2.39837 0.7758,-7.625 -2.4375,-7.625 z m 13.34375,7.84375 c -4.06957,0 -6.16467,4.01753 -3.46875,6.65625 1.86348,1.82382 5.59172,1.4254 6.78125,-0.75 1.45687,-2.66432 -0.34247,-5.90625 -3.3125,-5.90625 z m -13.34375,7.09375 c -0.91086,-0.0383 -1.85135,0.37046 -2.75,1.25 -2.04726,2.00383 -2.04424,3.84232 -0.0312,5.8125 2.0749,2.03071 3.00856,1.9384 5.5,-0.5 1.86971,-1.83 1.95735,-2.26627 0.65625,-4.1875 -1.04255,-1.53944 -2.20389,-2.32556 -3.375,-2.375 z m 25.25,0.125 c -0.14725,0.014 -0.3034,0.0526 -0.4375,0.0937 -2.88974,0.89759 -3.65244,4.2059 -1.53125,6.5 0.962,1.04032 2.18977,1.90625 2.75,1.90625 1.46232,0 4.65625,-3.05953 4.65625,-4.4375 0,-1.84599 -2.84582,-3.99805 -5,-4.0625 -0.15387,-0.005 -0.29024,-0.014 -0.4375,0 z m 14.46875,7.40625 c -2.9236,-0.11026 -5.69072,2.90798 -4,6 1.28547,2.35089 4.26603,2.50028 6.4375,0.375 1.88329,-1.84334 2.00847,-3.52621 0.375,-5.125 -0.8505,-0.83245 -1.83796,-1.21331 -2.8125,-1.25 z m -26.40625,0.0937 c -2.24773,-0.0363 -4.65625,1.51097 -4.65625,3.9375 0,0.86325 0.55726,2.07131 1.21875,2.71875 1.66465,1.6293 4.34298,1.46089 6.21875,-0.375 1.86332,-1.82372 1.87309,-1.92111 0.53125,-4.375 -0.69905,-1.2785 -1.96386,-1.88467 -3.3125,-1.90625 z m -13,7.09375 c -3.77648,-0.14901 -6.07654,4.15133 -2.71875,6.8125 1.6891,1.33873 2.67387,1.51005 4.125,0.75 2.41714,-1.26614 2.6192,-6.34069 0.28125,-7.21875 -0.58817,-0.22092 -1.148,-0.32246 -1.6875,-0.34375 z m 25.75,0.0312 c -0.45928,0.0245 -0.93912,0.12635 -1.4375,0.28125 -2.35234,0.73072 -3.41774,4.05559 -1.875,5.875 1.7216,2.03032 5.68796,1.75923 6.90625,-0.46875 1.66429,-3.04366 -0.37884,-5.8574 -3.59375,-5.6875 z m -12.71875,7.59375 c -4.27573,0 -5.98043,3.45585 -3.09375,6.28125 0.86625,0.84775 2.15813,1.5625 2.90625,1.5625 1.29552,0 4.53125,-2.56893 4.53125,-3.59375 0,-1.86119 -2.45421,-4.25 -4.34375,-4.25 z m 25.875,0.0312 c -1.40105,0.0128 -2.80828,0.67244 -3.5,1.9375 -0.76222,1.39386 -0.76222,2.51229 0,3.90625 1.28547,2.3508 4.26603,2.53152 6.4375,0.40625 1.86332,-1.82372 1.87308,-1.9211 0.53125,-4.375 -0.68477,-1.25231 -2.0677,-1.88795 -3.46875,-1.875 z m -39.5,7.09375 c -2.73266,0.28278 -5.11887,3.71994 -3,6.21875 0.68743,0.81067 2.41845,1.31841 3.84375,1.15625 1.94316,-0.22111 2.68037,-0.91059 2.90625,-2.8125 0.16568,-1.39504 -0.39046,-3.1085 -1.21875,-3.78125 -0.62845,-0.51049 -1.32015,-0.74318 -2,-0.78125 -0.18412,-0.0103 -0.34907,-0.0189 -0.53125,0 z m 26.34375,0 c -0.45928,0.0245 -0.93912,0.0952 -1.4375,0.25 -2.35234,0.73073 -3.41774,4.08684 -1.875,5.90625 1.7216,2.03031 5.68796,1.75923 6.90625,-0.46875 1.66429,-3.04366 -0.37884,-5.8575 -3.59375,-5.6875 z m -12.71875,7.59375 c -4.27573,0 -5.98043,3.45586 -3.09375,6.28125 0.86625,0.84786 2.15813,1.5625 2.90625,1.5625 1.29552,0 4.53125,-2.56893 4.53125,-3.59375 0,-1.8612 -2.45421,-4.25 -4.34375,-4.25 z m 26.0625,0 c -4.27574,0 -5.98044,3.45586 -3.09375,6.28125 0.86624,0.84786 2.15812,1.5625 2.90625,1.5625 1.29552,0 4.5,-2.56893 4.5,-3.59375 0,-1.8612 -2.42296,-4.25 -4.3125,-4.25 z m -39.6875,6.8125 c -1.24232,0.0893 -2.49769,0.8528 -3.25,2.46875 -0.86928,1.86728 -0.82531,2.77432 0.1875,3.96875 0.73999,0.87267 2.44732,1.41598 3.90625,1.25 2.02492,-0.23033 2.679,-0.9087 2.9375,-3.125 0.3458,-2.96489 -1.71072,-4.71053 -3.78125,-4.5625 z m 26.1875,0.125 c -1.38162,0 -2.64998,0.78637 -3.375,2.34375 -0.86262,1.85306 -0.81664,2.79015 0.15625,3.9375 1.77954,2.09859 5.72761,1.86352 6.96875,-0.40625 1.34183,-2.454 1.33207,-2.58263 -0.53125,-4.40625 -1.02158,-0.9999 -2.14415,-1.47012 -3.21875,-1.46875 z m -13.0625,7.6875 c -1.02288,0.01 -2.06125,0.36173 -2.96875,1.25 -1.63346,1.59869 -1.50828,3.28176 0.375,5.125 2.08554,2.04121 3.73224,1.93976 5.84375,-0.34375 2.57121,-2.78085 -0.18134,-6.05263 -3.25,-6.03125 z m 25.96875,0.125 c -1.08264,0.0383 -2.10926,0.37554 -2.875,1.125 -1.63346,1.59869 -1.5083,3.28176 0.375,5.125 0.86624,0.84786 2.15812,1.5625 2.90625,1.5625 1.69637,0 4.5,-2.66844 4.5,-4.28125 0,-2.16226 -2.52442,-3.6162 -4.90625,-3.53125 z m -12.75,6.8125 c -1.42555,0.0912 -2.82553,0.9216 -3.53125,2.4375 -0.86262,1.85305 -0.81664,2.79016 0.15625,3.9375 3.21646,3.79312 9.36437,-0.0824 7,-4.40625 -0.77686,-1.42074 -2.19946,-2.06028 -3.625,-1.96875 z m -26.5625,0.21875 c -3.33908,0.19561 -5.25144,3.89747 -2.65625,6.4375 1.73413,1.69728 5.58079,1.47466 6.65625,-0.40625 1.39237,-2.43516 0.1892,-5.21442 -2.5,-5.875 -0.5257,-0.1292 -1.02299,-0.18421 -1.5,-0.15625 z m 13.46875,7.03125 c -0.76136,-0.0343 -1.44752,0.33478 -2.375,1.15625 -2.33318,2.06661 -2.42927,3.70879 -0.34375,5.75 2.15298,2.10723 4.01598,1.93541 5.78125,-0.53125 1.73199,-2.42025 1.20442,-4.42581 -1.5625,-5.875 -0.57064,-0.299 -1.04319,-0.4794 -1.5,-0.5 z m 26.375,0.15625 c -0.6112,-0.0265 -1.18865,0.2456 -2.0625,0.8125 -2.67289,1.73367 -3.05535,3.92518 -1.03125,5.90625 2.0473,2.00374 3.89328,2.0017 5.90625,0.0312 2.17338,-2.12724 1.97978,-3.96424 -0.625,-5.75 -0.94101,-0.64499 -1.5763,-0.97371 -2.1875,-1 z m -13.15625,7.3125 c -3.13351,0 -4.99931,3.16434 -3.5,5.90625 0.6209,1.13548 2.09062,1.96875 3.5,1.96875 1.40938,0 2.8791,-0.83327 3.5,-1.96875 1.49931,-2.74191 -0.36649,-5.90625 -3.5,-5.90625 z m -26.125,0.0937 c -3.7917,-0.01 -5.9112,3.9592 -3.1875,6.625 0.68519,0.67059 2.368,1.09553 3.75,0.9375 2.14757,-0.24563 2.5,-0.78427 2.5,-3.71875 0,-2.83811 -0.37149,-3.51629 -2.28125,-3.78125 -0.26676,-0.0373 -0.52847,-0.0625 -0.78125,-0.0625 z m 12.9375,7 c -0.90528,-0.0245 -1.83321,0.38337 -2.71875,1.25 -2.04725,2.00381 -2.04423,3.84231 -0.0312,5.81251 2.17339,2.1271 4.01929,1.9244 5.84375,-0.625 1.31822,-1.8421 1.34582,-2.4458 0.1875,-4.1563 -0.99646,-1.47139 -2.11733,-2.24962 -3.28125,-2.28121 z m -12.9375,7.71871 c -3.7917,-0.01 -5.9112,3.9592 -3.1875,6.625 0.68519,0.6706 2.368,1.0955 3.75,0.9375 2.14757,-0.2456 2.5,-0.7843 2.5,-3.7188 0,-2.838 -0.37149,-3.5163 -2.28125,-3.7812 -0.26676,-0.037 -0.52847,-0.062 -0.78125,-0.062 z"
         style="fill:#bab4cd;fill-opacity:1;stroke:none" />
      <path
         inkscape:connector-curvature="0"
         id="path3208"
         d="m 138.53891,868.8065 c -7.59526,0.1222 -8.17079,0.8686 -8.1875,4.8438 -0.021,4.9938 -0.6881,5.6673 -7,7.1562 -40.452428,9.5422 -67.230919,50.69866 -59.531249,91.43746 6.09984,32.27394 30.178021,57.09524 62.031249,63.90624 14.42278,3.0839 31.06533,1.5771 45.74999,-4.125 21.36044,-8.2943 38.93521,-27.2395 46.40625,-50.03124 2.61789,-7.9864 2.84376,-9.8993 2.84376,-23.6875 0,-12.9398 -0.32372,-16.036 -2.34376,-22.4687 -4.36888,-13.9127 -9.82376,-23.0957 -19.90625,-33.40626 -9.97584,-10.2015 -21.39525,-16.9563 -35.4375,-21 l -8.31249,-2.4062 -0.28125,-3.875 c -0.42601,-5.4728 -2.15886,-6.3438 -12.3125,-6.3438 -1.38966,0 -2.63371,-0.018 -3.71875,0 z m 4.3125,22.5 6.15625,0.2188 c 8.78641,0.3283 20.88424,4.4659 29.49999,10.0937 20.44688,13.35576 31.86149,35.76396 30.625,60.06246 -1.24835,24.5314 -15.46054,46.18174 -37.09375,56.53124 -5.04445,2.4133 -11.43749,4.8705 -14.18749,5.4375 -9.81201,2.0229 -13.19928,2.1979 -14.375,0.7812 -0.81276,-0.9793 -1.061,-19.6067 -0.875,-67.24994 l 0.25,-65.87496 z m 9.875,10.5 c -1.64416,0 -4.375,2.8075 -4.375,4.49996 0,0.7464 0.72946,2.042 1.59375,2.9063 1.87901,1.879 3.58899,2.0047 5.21875,0.375 2.44481,-2.4449 0.76851,-7.78126 -2.4375,-7.78126 z m 13.31249,7.99996 c -4.06034,0 -6.15855,4.0914 -3.46875,6.7813 1.85925,1.8592 5.59442,1.4363 6.78125,-0.7813 1.45356,-2.716 -0.34921,-6 -3.3125,-6 z m -13.31249,7.2188 c -0.9088,-0.039 -1.85339,0.3846 -2.75,1.2812 -2.04261,2.0427 -2.03965,3.8979 -0.0312,5.9063 2.07019,2.0701 3.01422,1.9857 5.5,-0.5 1.86547,-1.8655 1.92315,-2.2915 0.625,-4.25 -1.04018,-1.5693 -2.1753,-2.3871 -3.34375,-2.4375 z m 25.62499,0.125 c -0.30704,-0.01 -0.60741,0.01 -0.875,0.094 -2.88319,0.915 -3.64763,4.2864 -1.53125,6.625 0.95982,1.0605 2.19105,1.9375 2.75,1.9375 1.45901,0 4.65625,-3.0953 4.65625,-4.5 0,-1.8818 -2.85071,-4.0906 -5,-4.1563 z m 14,7.5625 c -2.91697,-0.1124 -5.68688,2.9417 -4,6.0937 1.28256,2.3965 4.27096,2.5728 6.4375,0.4063 1.87902,-1.8791 2.00476,-3.589 0.375,-5.2188 -0.84857,-0.8486 -1.84018,-1.2438 -2.8125,-1.2812 z m -26.34375,0.094 c -2.24263,-0.037 -4.65624,1.5264 -4.65624,4 0,0.88 0.55875,2.1212 1.21874,2.7812 1.66087,1.6609 4.34723,1.4965 6.21875,-0.375 1.85909,-1.8591 1.87004,-1.9672 0.53125,-4.4687 -0.69747,-1.3033 -1.96692,-1.9155 -3.3125,-1.9375 z m -12.96874,7.2187 c -3.76791,-0.1519 -6.06892,4.2247 -2.71875,6.9375 1.68527,1.3647 2.67716,1.5561 4.125,0.7813 2.41165,-1.2907 2.61389,-6.4799 0.28125,-7.375 -0.58684,-0.2252 -1.14923,-0.3221 -1.6875,-0.3438 z m 25.68749,0.031 c -0.45823,0.025 -0.94025,0.1234 -1.4375,0.2813 -2.347,0.7449 -3.41424,4.1453 -1.875,6 1.71769,2.0697 5.69072,1.8024 6.90625,-0.4688 1.66051,-3.1027 -0.38613,-5.9857 -3.59375,-5.8125 z m -12.6875,7.75 c -4.26603,0 -5.97388,3.5261 -3.09375,6.4063 0.86428,0.8642 2.15982,1.5937 2.90625,1.5937 1.29258,0 4.5,-2.6115 4.5,-3.6562 0,-1.8973 -2.42725,-4.3438 -4.3125,-4.3438 z m 25.8125,0.031 c -1.39787,0.013 -2.80985,0.6792 -3.5,1.9688 -0.76049,1.4209 -0.76049,2.579 0,4 1.28256,2.3964 4.27096,2.5727 6.4375,0.4062 1.85909,-1.8591 1.87004,-1.9672 0.53125,-4.4687 -0.68321,-1.2766 -2.07088,-1.9195 -3.46875,-1.9063 z m -38.87499,7.2188 c -2.93936,-0.1682 -5.78625,3.6266 -3.53125,6.3437 0.68586,0.8264 2.42168,1.3528 3.84375,1.1875 1.93875,-0.2254 2.64963,-0.9362 2.875,-2.875 0.1653,-1.4221 -0.36109,-3.1579 -1.1875,-3.8437 -0.62702,-0.5204 -1.32169,-0.7737 -2,-0.8125 z m 25.74999,0 c -0.45823,0.025 -0.94025,0.1234 -1.4375,0.2812 -2.347,0.7449 -3.41424,4.1453 -1.875,6 1.71769,2.0697 5.69072,1.8025 6.90625,-0.4687 1.66051,-3.1027 -0.38613,-5.9858 -3.59375,-5.8125 z m -12.6875,7.75 c -4.26603,0 -5.97388,3.526 -3.09375,6.4062 0.86428,0.8643 2.15982,1.5938 2.90625,1.5938 1.29258,0 4.5,-2.6116 4.5,-3.6563 0,-1.8973 -2.42725,-4.3437 -4.3125,-4.3437 z m 26,0 c -4.26604,0 -5.97389,3.526 -3.09375,6.4062 0.86428,0.8643 2.15982,1.5938 2.90625,1.5938 1.29258,0 4.5,-2.6116 4.5,-3.6563 0,-1.8973 -2.42725,-4.3437 -4.3125,-4.3437 z m -39.59374,6.9375 c -1.2395,0.091 -2.49941,0.8839 -3.25,2.5312 -0.86731,1.9035 -0.82301,2.8137 0.1875,4.0313 0.7383,0.8896 2.45063,1.4504 3.90625,1.2812 2.02032,-0.2348 2.64833,-0.9282 2.90625,-3.1875 0.34501,-3.0224 -1.68417,-4.8071 -3.75,-4.6562 z m 26.12499,0.125 c -1.37849,0 -2.65163,0.8186 -3.375,2.4062 -0.86067,1.889 -0.81443,2.8304 0.15625,4 1.7755,2.1393 5.73043,1.9076 6.96875,-0.4062 1.33879,-2.5016 1.32784,-2.641 -0.53125,-4.5 -1.01926,-1.0193 -2.14659,-1.5014 -3.21875,-1.5 z m -13.03125,7.8437 c -1.02056,0.01 -2.06331,0.3758 -2.96875,1.2813 -1.62975,1.6297 -1.50401,3.3397 0.375,5.2187 2.0808,2.0808 3.73703,1.9841 5.84375,-0.3437 2.56537,-2.8348 -0.18831,-6.1781 -3.25,-6.1563 z m 25.90625,0.125 c -1.08019,0.039 -2.111,0.3923 -2.875,1.1563 -1.62976,1.6297 -1.50402,3.3397 0.375,5.2187 0.86428,0.8643 2.15982,1.5938 2.90625,1.5938 1.69252,0 4.5,-2.7309 4.5,-4.375 0,-2.2042 -2.52983,-3.6804 -4.90625,-3.5938 z m -12.71875,6.9375 c -1.42231,0.093 -2.82714,0.9547 -3.53125,2.5 -0.86067,1.889 -0.81443,2.8304 0.15625,4 3.20916,3.8667 9.359,-0.061 7,-4.4687 -0.7751,-1.4483 -2.20269,-2.1246 -3.625,-2.0313 z m -26.49999,0.25 c -3.3315,0.1994 -5.24556,3.9732 -2.65625,6.5625 1.73018,1.7302 5.55198,1.4799 6.625,-0.4375 1.38921,-2.4824 0.21435,-5.2953 -2.46875,-5.9687 -0.5245,-0.1317 -1.02407,-0.1848 -1.5,-0.1563 z m 13.43749,7.1563 c -0.75963,-0.035 -1.44962,0.35 -2.375,1.1874 -2.32788,2.1067 -2.42454,3.7629 -0.34375,5.8437 2.14809,2.14811 4.01998,1.98331 5.78125,-0.5312 1.72806,-2.4672 1.19814,-4.5226 -1.5625,-5.9999 -0.56934,-0.3048 -1.04422,-0.479 -1.5,-0.5 z m 26.3125,0.1562 c -0.60981,-0.027 -1.19063,0.2659 -2.0625,0.8438 -2.66683,1.7673 -3.05076,3.9804 -1.03125,5.9999 2.04265,2.04261 3.89785,2.03961 5.90625,0.031 2.16845,-2.1685 1.97387,-4.0234 -0.625,-5.8438 -0.93887,-0.6575 -1.57769,-1.0043 -2.1875,-1.0311 z m -13.125,7.46871 c -3.1264,0 -4.99591,3.20486 -3.5,5.99996 0.61949,1.1575 2.09382,2 3.5,2 1.40618,0 2.88051,-0.8425 3.5,-2 1.49591,-2.7951 -0.3736,-5.99996 -3.5,-5.99996 z m -26.06249,0.094 c -3.78309,-0.01 -5.90502,4.03246 -3.1875,6.74996 0.68363,0.6836 2.37113,1.0986 3.75,0.9375 2.14269,-0.2504 2.5,-0.7899 2.5,-3.7813 0,-2.89316 -0.37583,-3.57356 -2.28125,-3.84366 -0.26616,-0.038 -0.52904,-0.062 -0.78125,-0.062 z m 12.90624,7.12496 c -0.90322,-0.025 -1.83521,0.3977 -2.71875,1.28117 -2.0426,2.0427 -2.03964,3.8979 -0.0312,5.9063 2.16845,2.1684 4.02343,1.9739 5.84375,-0.625 1.31522,-1.8778 1.34319,-2.5063 0.1875,-4.25 -0.9942,-1.50007 -2.11997,-2.28027 -3.28125,-2.31247 z m -12.90624,7.87497 c -3.78309,-0.01 -5.90502,4.0325 -3.1875,6.75 0.68363,0.6836 2.37113,1.0986 3.75,0.9375 2.14269,-0.2504 2.5,-0.7899 2.5,-3.7813 0,-2.8932 -0.37583,-3.5736 -2.28125,-3.8437 -0.26616,-0.038 -0.52904,-0.062 -0.78125,-0.062 z"
         style="fill:#dd2626;fill-opacity:1;stroke:none" />
    </g>
  </g>
</svg>
